<svg width="1170" height="780" viewBox="0 0 1170 780" fill="none" xmlns="http://www.w3.org/2000/svg">
  <rect width="1170" height="780" fill="#27272A"/>
  <rect x="385" y="240" width="400" height="300" rx="10" fill="#9333EA" fill-opacity="0.1"/>
  <path d="M585 320C578.333 320 572.667 321.833 568 325.5C563.333 329.167 559.833 334 557.5 340C555.167 346 554 352.667 554 360C554 367.333 555.167 374 557.5 380C559.833 386 563.333 390.833 568 394.5C572.667 398.167 578.333 400 585 400C591.667 400 597.333 398.167 602 394.5C606.667 390.833 610.167 386 612.5 380C614.833 374 616 367.333 616 360C616 352.667 614.833 346 612.5 340C610.167 334 606.667 329.167 602 325.5C597.333 321.833 591.667 320 585 320ZM585 330C589.667 330 593.667 331.333 597 334C600.333 336.667 602.833 340.333 604.5 345C606.167 349.667 607 354.667 607 360C607 365.333 606.167 370.333 604.5 375C602.833 379.667 600.333 383.333 597 386C593.667 388.667 589.667 390 585 390C580.333 390 576.333 388.667 573 386C569.667 383.333 567.167 379.667 565.5 375C563.833 370.333 563 365.333 563 360C563 354.667 563.833 349.667 565.5 345C567.167 340.333 569.667 336.667 573 334C576.333 331.333 580.333 330 585 330Z" fill="#A78BFA"/>
  <path d="M525 440H645M525 420H645" stroke="#EC4899" stroke-width="4" stroke-linecap="round"/>
  <text x="585" y="480" text-anchor="middle" font-family="sans-serif" font-size="14" fill="white">잠실점</text>
</svg>